<?xml version="1.0" encoding="UTF-8"?>
<!-- Created with Inkscape (http://www.inkscape.org/) -->
<svg width="100" height="100" version="1.1" viewBox="0 0 26.458 26.458" xmlns="http://www.w3.org/2000/svg" xmlns:cc="http://creativecommons.org/ns#" xmlns:dc="http://purl.org/dc/elements/1.1/" xmlns:rdf="http://www.w3.org/1999/02/22-rdf-syntax-ns#">
 <metadata>
  <rdf:RDF>
   <cc:Work rdf:about="">
    <dc:format>image/svg+xml</dc:format>
    <dc:type rdf:resource="http://purl.org/dc/dcmitype/StillImage"/>
    <dc:title/>
   </cc:Work>
  </rdf:RDF>
 </metadata>
 <g transform="translate(0 -270.54)">
  <g id="Ibiza_Symbols" transform="matrix(.5683 0 0 .5683 -51.898 233.22)" fill="#2165b6">
   <g fill="#2165b6">
    <path d="m131 71.7h-33.1c-1.1 0-2 1-2 2.1v23.1c0 1.1 0.9 2.1 2 2.1h11.3c1.2 4.3-0.4 4.9-7.6 4.9v2.3h24.4v-2.3c-7.2 0-7.9-0.6-6.7-4.9h11.7c1.1 0 2.3-1 2.3-2.1v-23.1c0-1.1-1.2-2.1-2.3-2.1zm-0.6 2.8v21.6h-31.7v-21.6z"/>
    <g id="group975-1984_1_" transform="translate(1176.5 -2762.6)">
     <title>Sheet.975</title>
     <g fill="#2165b6">
      <g id="shape976-1985_2_" transform="translate(.8685 -17.652)">
       <title>Sheet.976</title>
       <path d="m-1057.4 2861.6-5.8-3.3-5.8 3.3v0.1l5.8 3.3z" fill="#2165b6"/>
      </g>
      <g id="shape977-1987_1_" transform="translate(15.892)">
       <title>Sheet.977</title>
       <path d="m-1077.6 2848.3v6.6l5.8-3.3v-6.6z" fill="#2165b6"/>
      </g>
      <g id="shape978-1989_1_">
       <title>Sheet.978</title>
       <path d="m-1062.9 2848.3-5.8-3.3v6.6l5.8 3.3z" fill="#2165b6"/>
      </g>
     </g>
    </g>
   </g>
  </g>
 </g>
</svg>
