<?xml version="1.0" encoding="UTF-8"?>
<!-- Created with Inkscape (http://www.inkscape.org/) -->
<svg width="100" height="100" version="1.1" viewBox="0 0 26.458 26.458" xmlns="http://www.w3.org/2000/svg" xmlns:cc="http://creativecommons.org/ns#" xmlns:dc="http://purl.org/dc/elements/1.1/" xmlns:rdf="http://www.w3.org/1999/02/22-rdf-syntax-ns#">
 <metadata>
  <rdf:RDF>
   <cc:Work rdf:about="">
    <dc:format>image/svg+xml</dc:format>
    <dc:type rdf:resource="http://purl.org/dc/dcmitype/StillImage"/>
    <dc:title/>
   </cc:Work>
  </rdf:RDF>
 </metadata>
 <g transform="translate(0 -270.54)">
  <g id="paths" transform="matrix(.4902 0 0 .4902 -24.517 255.76)" fill="#2165b6">
   <g fill="#2165b6">
    <path d="m78.3 57c-0.1-0.2-0.3-0.3-0.4-0.5-0.2-0.1-0.4-0.2-0.6-0.2-0.3 0-0.5 0.1-0.7 0.2s-0.3 0.3-0.5 0.4l-0.3 0.6c-0.1 0.2-0.1 0.5-0.1 0.8 0 0.4 0 0.7 0.1 0.9 0.1 0.3 0.2 0.5 0.3 0.6 0.1 0.2 0.3 0.3 0.5 0.3 0.2 0.1 0.4 0.1 0.6 0.1s0.4 0 0.5-0.1c0.2-0.1 0.3-0.2 0.5-0.4l0.3-0.6c0.1-0.2 0.1-0.5 0.1-0.9 0-0.3 0-0.5-0.1-0.8l-0.2-0.4z"/>
    <path d="m77 37.9c-8 0-14.4 2.7-14.4 5.7v27c0 3 6.5 5.8 14.4 5.8 8 0 14.4-2.7 14.4-5.7v-27c0.1-3-6.4-5.8-14.4-5.8zm-4.3 22.6c0 0.2-0.1 0.4-0.2 0.6s-0.2 0.4-0.4 0.5c-0.2 0.2-0.4 0.3-0.6 0.4s-0.5 0.2-0.9 0.3c-0.3 0.1-0.7 0.1-1.2 0.1h-0.7c-0.2 0-0.4 0-0.6-0.1-0.2 0-0.4-0.1-0.5-0.1-0.2 0-0.3-0.1-0.4-0.2v-2.1c0.1 0.1 0.3 0.2 0.5 0.3s0.3 0.2 0.5 0.3 0.4 0.1 0.6 0.2 0.4 0.1 0.6 0.1 0.3 0 0.4-0.1c0.1 0 0.2-0.1 0.2-0.1 0.1 0 0.1-0.1 0.1-0.2v-0.2c0-0.1 0-0.2-0.1-0.3s-0.1-0.2-0.2-0.2c-0.1-0.1-0.2-0.1-0.4-0.2s-0.3-0.1-0.5-0.2c-0.3-0.1-0.6-0.3-0.9-0.5-0.2-0.2-0.4-0.3-0.6-0.5s-0.3-0.4-0.3-0.6c-0.1-0.2-0.1-0.5-0.1-0.7 0-0.4 0.1-0.7 0.2-1 0.2-0.3 0.4-0.6 0.6-0.8 0.3-0.2 0.6-0.4 1-0.5s0.8-0.2 1.3-0.2h0.7c0.2 0 0.4 0 0.6 0.1 0.2 0 0.3 0.1 0.5 0.1s0.3 0.1 0.4 0.1v2c-0.1-0.1-0.2-0.1-0.4-0.2-0.1-0.1-0.3-0.1-0.5-0.2s-0.3-0.1-0.5-0.1h-0.6c-0.3 0-0.5 0-0.6 0.1-0.2 0.1-0.2 0.2-0.2 0.4 0 0.1 0 0.2 0.1 0.2 0 0.1 0.1 0.1 0.2 0.2s0.2 0.1 0.3 0.2 0.3 0.1 0.5 0.2c0.3 0.1 0.6 0.3 0.9 0.4 0.3 0.2 0.5 0.3 0.7 0.5s0.3 0.4 0.5 0.6c0.1 0.2 0.2 0.5 0.2 0.9-0.1 0.1-0.2 0.3-0.2 0.5zm5.9 3.8-1.7-1.8c-0.5 0-1-0.2-1.4-0.3-0.4-0.2-0.8-0.5-1.1-0.8s-0.6-0.7-0.8-1.2-0.3-1-0.3-1.6 0.1-1.2 0.3-1.7 0.5-0.9 0.8-1.3 0.8-0.6 1.2-0.8c0.5-0.2 1-0.3 1.6-0.3s1.1 0.1 1.5 0.3c0.5 0.2 0.9 0.5 1.2 0.8s0.6 0.8 0.8 1.2c0.2 0.5 0.3 1 0.3 1.7 0 0.4 0 0.9-0.2 1.2-0.1 0.4-0.3 0.7-0.5 1s-0.4 0.6-0.7 0.8-0.5 0.4-0.9 0.6l2.6 2.2zm8.6-2h-5v-7.7h2.3v5.9h2.7zm-10.2-16c-5.7 0-10.3-1.4-10.3-3.1s4.6-3.1 10.3-3.1 10.3 1.4 10.3 3.1-4.6 3.1-10.3 3.1z"/>
   </g>
  </g>
 </g>
</svg>
