<?xml version="1.0" encoding="UTF-8"?>
<!-- Created with Inkscape (http://www.inkscape.org/) -->
<svg width="100" height="100" version="1.1" viewBox="0 0 26.458 26.458" xmlns="http://www.w3.org/2000/svg" xmlns:cc="http://creativecommons.org/ns#" xmlns:dc="http://purl.org/dc/elements/1.1/" xmlns:rdf="http://www.w3.org/1999/02/22-rdf-syntax-ns#">
 <metadata>
  <rdf:RDF>
   <cc:Work rdf:about="">
    <dc:format>image/svg+xml</dc:format>
    <dc:type rdf:resource="http://purl.org/dc/dcmitype/StillImage"/>
    <dc:title/>
   </cc:Work>
  </rdf:RDF>
 </metadata>
 <g transform="translate(0 -270.54)">
  <g transform="matrix(.38408 0 0 .38408 -15.927 261.15)" fill="#2165b6">
   <g fill="#2165b6">
    <path d="m83.6 72.6c-0.3-0.9-1.3-2.6-1.3-2.6s-0.2 2.5-1.9 5-2.8 2.9-2.8 2.9-0.1 0.8 0.8 0.9h4.7c0.7 0 1.2-0.6 1.2-1.3s-0.6-1.5-0.6-1.5 0.2-2.5-0.1-3.4z"/>
    <path d="m50.1 66.8s-1.4 1.6-2.3 2.8-0.3 2-0.3 2 2.5 4.1 4.6 3.5c0.7-0.2 1.3-1.3 1.3-1.3s-0.9-1.2-1.6-2.7c-0.9-1.6-1.6-3.9-1.7-4.3z"/>
    <path d="m105.6 48.9c-0.3-7.9-2.5-10-3.1-10-0.8 0.1-1.1 1.4-2 2-1.2 0.9-2 0.7-2.7 1.4s0.7 2.5 0.5 7.2c-0.2 4.3-3 5.9-3 5.9s1.3-1.9 1.5-3.2c0.2-1-0.4-1.2-0.8-1.5-0.8-0.7-2.4 1.1-2.8 1.5 0.7-0.8 1.8-1.7 1.4-2.5-0.8-1.3-2.5-0.4-2.9-0.3 0.4-0.2 1.2-0.5 1-1.3-0.3-1.4-1.7-1.1-1.9-1 0.6-0.3 0.9-0.6 2.5-0.5 0.9 0 0.7-0.9 0.1-1.6-0.9-1.1-1.5-1.5-2.2-1.7-0.8-0.3-2.4-0.1-2.4-0.1s1.1-0.7 1.7-0.6c-0.8-1.1-3.4-5.1-7.9-5.3-8.2-0.4-10.6 4.9-10.6 4.9l4-0.2s-1.2 0.5-3.6 0.9c-1.9 0.3-1.8 0.3-2.4 0.4-0.9 0.2-3.2 3-5.3 5.4-2.2 2.3-4.3 5.4-4.3 6.6s1.2 2 1.9 3 0.7 1.7 0.7 1.7l2.9-3.4-3.4 7s1.6 2.1 3.3 1.9c1.3-0.2 4.2-2.5 6-2.8 1.9-0.4 2.7-0.1 2.7-0.1s1.3-3.4 0.7-5.8c-1.1-4.3-0.3-6.6 0.6-8-0.7 5.7 1.2 6.1 1.1 9.8-0.1 2.8-1 5.8-1 5.8s-2.7-0.9-4.8 0.2-3.9 2.6-5.9 2.6c-2.1 0-4.9-3.6-4.9-3.6l1.5-2.2s-0.2-0.7-0.8-1.4c-0.9-1.1-2.4-2.7-2.5-4-0.1-2.2 2.1-4.6 2.9-5.5 0.8-1 3.2-3.6 3.2-3.6s-7 1-9.9 4.4c-3.5 4.2-4 5.4-5.3 5.6s-1.8-1.2-1.8-1.2 1-0.1 0.9-1.3c-0.2-1.9 0.3-3 0.3-3s-2.1 1.3-2.5 2.6c-0.4 1.4 0.5 1.7 0.5 1.7s0 2.4 1.4 2.9c1.4 0.6 2.5 0.1 2.5 0.1s-0.9 4.4 0.3 7.6 3.6 6.7 3.6 6.7-0.2 2.4-0.5 3c-0.2 0.6-1.1 2 0.3 3s4.9 1.4 5.7 0.9 0.6-1.9 0.7-2.4 1.2-2.5 1.4-3c0.1-0.6 0.1-3.6-0.1-4.6 0.2 0.5 1.1 2.8 4.4 2.9 3 0.1 4-1.5 4-2.6 0 0.5 0.2 2.7-0.1 3.1s-1.2 0.7-2.1 1.2c-0.9 0.6-2.1 1.2-0.1 3.6 2.2 2.8 2.6 3 4.5 1.5s3.9-2.9 5.3-4.7 3.9-8.4 3.9-8.4-1.5-1-2.5-2.3c-0.7-1-0.9-1.6-0.9-1.6s2 2 4.1 2.5c0.8 0.9 2.1 2.2 3.2 2.6 4.1 1.7 5.4-3.4 5.4-3.4l-0.2-0.2s-1.1 2.6-2.9 2.4c-3.6-0.4-2.5-7.8-2.5-7.8s3.6 5.2 10.9 5c4.4 0 9.5-5.3 9.1-14.8zm-25.4-0.4s0.3-3.4 1-3.9c0.9-0.6 3.3 0.2 3.3 0.2s-1.5 0-2.4 0.8c-0.8 0.7-1.9 2.9-1.9 2.9zm5.9 3c-1.1 0.9-2.1 2-2.1 2s0.2-0.5 0.4-0.8 0.5-0.8 0.5-0.8-0.4-0.1-0.9-0.6c-0.3-0.3-0.4-0.6-0.5-0.8 0 0-0.2 0.1-0.5 0.4-0.3 0.2-0.7 0.7-0.7 0.7s1-1.9 2.4-2.9c1.5-1 3-1 3-1s-0.2 0-0.7 0.3c-0.5 0.2-0.5 0.3-0.5 0.3s0.5 0.2 0.9 0.6c0.4 0.5 0.5 1.1 0.5 1.1s0.1 0 0.6-0.2 1-0.2 1-0.2-1.9 0.7-3.4 1.9zm15.1-8.9c-1.2 0.9-2.5 1-2.6 0.6-0.2-0.4 0.1-0.4 0.1-0.4s1.3-0.5 2-1c0.9-0.7 1.7-2.3 2-1.9 0.2 0.4-0.6 2-1.5 2.7z"/>
   </g>
  </g>
 </g>
</svg>
