<?xml version="1.0" encoding="UTF-8"?>
<!-- Created with Inkscape (http://www.inkscape.org/) -->
<svg width="100" height="100" version="1.1" viewBox="0 0 26.458 26.458" xmlns="http://www.w3.org/2000/svg" xmlns:cc="http://creativecommons.org/ns#" xmlns:dc="http://purl.org/dc/elements/1.1/" xmlns:rdf="http://www.w3.org/1999/02/22-rdf-syntax-ns#">
 <metadata>
  <rdf:RDF>
   <cc:Work rdf:about="">
    <dc:format>image/svg+xml</dc:format>
    <dc:type rdf:resource="http://purl.org/dc/dcmitype/StillImage"/>
    <dc:title/>
   </cc:Work>
  </rdf:RDF>
 </metadata>
 <g transform="translate(0 -270.54)">
  <path d="m15.092 277.01c-0.54799 0-1.096 0.13737-1.5983 0.3657-0.41101-0.22833-0.86767-0.32021-1.37-0.32021-1.0904 0-2.1346 0.49758-2.7748 1.0872 0.010401 4e-3 0.0249 4e-3 0.0349 9e-3 0.0913-0.0913 0.18311-0.18253 0.32015-0.27382v4.795c0 0.13696 0.13687 0.27382 0.27388 0.27382h2.0094c0.45666 0 0.86761 0.41082 0.91333 0.95881v1.3334c0.60047 0.16381 1.0498 0.71185 1.0498 1.3611 0.0457 0.77632-0.59347 1.4155-1.4155 1.4155-0.77635 0-1.4155-0.63915-1.4155-1.4155 0-0.68267 0.49452-1.2586 1.1417-1.3878v-1.3066c-3e-5 -0.13695-0.13687-0.27381-0.27386-0.27381h-2.0094c-0.50235 0-0.91334-0.411-0.91334-0.91333v-4.6121c0.018301 0 0.043 1e-3 0.0642 2e-3 -0.13652-0.0263-0.28076-0.0473-0.42991-0.0473-1.644 0-3.2421 1.3243-3.6988 2.9683-1.4156 0.50233-2.4205 1.4151-2.9228 2.6481-0.45666 1.1873-0.36551 2.4664 0.27382 3.5623 0.63932 1.096 1.7817 1.7811 3.0146 1.7812 0.45668 0 0.91338-0.092 1.37-0.27473 0.51544 0.4832 1.1668 0.8267 1.8267 0.98913v-3.911c0-0.13699-0.13756-0.27473-0.27468-0.27473h-1.1818c-0.14705 0.62412-0.70918 1.0962-1.3753 1.0962-0.77633 0-1.4155-0.63914-1.4155-1.4155s0.63914-1.4155 1.4155-1.4155c0.66614 0 1.2283 0.472 1.3753 1.0962h1.1818c0.50232-4e-5 0.91333 0.411 0.91333 0.91333v4.0083c0.0609 4e-3 0.12254 0.01 0.18285 0.01 0.31965 0 0.63932-0.0452 0.91331-0.13646 0.73068 0.59366 1.8722 0.82145 2.7855 0.82145 1.096 0 2.0554-0.27363 2.649-0.77596 0.20377 0.0906 0.41881 0.15768 0.63951 0.20335v-8.7435c-4e-5 -0.13696-0.13687-0.27382-0.27386-0.27382h-1.394c-0.11892 0.62417-0.68687 1.0962-1.3923 1.0962-0.77634 0-1.4155-0.63914-1.4155-1.4155s0.63915-1.4155 1.4155-1.4155c0.66584 0 1.228 0.47155 1.3753 1.0953h1.411c0.50233 0 0.91333 0.411 0.91333 0.91333v4.5666h2.5572c0.13686 0 0.27382-0.13677 0.27382-0.27382v-0.26847c-0.62416-0.147-1.0962-0.7092-1.0962-1.3753 0-0.77633 0.63914-1.4155 1.4155-1.4155 0.77632 0 1.4163 0.63915 1.4163 1.4155 0 0.6659-0.47242 1.2281-1.0961 1.3753v0.26847c-4e-5 0.50233-0.41109 0.91305-0.91333 0.95881h-2.5572v3.5596c0.0155 2.2e-4 0.0302 3e-3 0.0456 3e-3 1.1873 0 2.3743-0.63969 3.0593-1.5074 0.36534 0.13704 0.77633 0.22833 1.1417 0.22833 1.2787 0 2.4658-0.82163 3.0138-2.146 0.50233-0.95899 0.50264-1.964 0.13739-2.8773-0.41104-0.95899-1.2783-1.8265-2.3743-2.3288-0.50232-1.7353-1.9638-3.425-4.0644-3.425h-0.22833c-0.8677-0.63932-1.7357-0.95881-2.649-0.95881zm-1.7812 2.74c-0.45668 0-0.82146 0.3657-0.82146 0.82236 0 0.45657 0.36478 0.82144 0.82146 0.82144 0.45665 0 0.82235-0.36487 0.82235-0.82144 0.0457-0.45666-0.32003-0.82236-0.82235-0.82236zm6.8499 3.2876c-0.45667 0-0.82146 0.3657-0.82146 0.82236-3e-5 0.45666 0.36479 0.82236 0.82146 0.82236 0.45666 0 0.82236-0.3657 0.82236-0.82236s-0.3657-0.82236-0.82236-0.82236zm-14.43 1.3245c-0.4567 0-0.82149 0.36569-0.82149 0.82236 0 0.45666 0.36479 0.82144 0.82149 0.82144 0.45666 0 0.82236-0.36478 0.82236-0.82144 0.0457-0.411-0.3657-0.82236-0.82236-0.82236zm6.8045 1.37c-0.45667 0-0.82237 0.36569-0.82237 0.82236 0 0.45666 0.3657 0.82144 0.82237 0.82144 0.45661 0 0.82231-0.36478 0.82231-0.82144 0.0457-0.45667-0.3657-0.82236-0.82231-0.82236zm-3.8737 4.0279c0.15551 0.0339 0.31063 0.0553 0.46471 0.0678-0.16501-0.0327-0.32245-0.0579-0.46471-0.0678z" fill="#2165b6" stroke-width=".45666"/>
 </g>
</svg>
