<?xml version="1.0" encoding="UTF-8"?>
<!-- Created with Inkscape (http://www.inkscape.org/) -->
<svg width="100" height="100" version="1.1" viewBox="0 0 26.458 26.458" xmlns="http://www.w3.org/2000/svg" xmlns:cc="http://creativecommons.org/ns#" xmlns:dc="http://purl.org/dc/elements/1.1/" xmlns:rdf="http://www.w3.org/1999/02/22-rdf-syntax-ns#">
 <metadata>
  <rdf:RDF>
   <cc:Work rdf:about="">
    <dc:format>image/svg+xml</dc:format>
    <dc:type rdf:resource="http://purl.org/dc/dcmitype/StillImage"/>
    <dc:title/>
   </cc:Work>
  </rdf:RDF>
 </metadata>
 <g transform="translate(0 -270.54)">
  <g transform="matrix(.43598 0 0 .43598 2.1116 272.87)" fill="#2165b6">
   <g fill="#2165b6">
    <path d="m30 3.2c0-0.7-0.5-1.2-1.2-1.2h-26.6c-0.7 0-1.2 0.5-1.2 1.2v3.8h29zm-17.296 7.044c0.06-0.062 0.207-0.194 0.396-0.194h0.186l0.967 0.753 0.197 0.194v3e-3h15.55v-3h-29v18.8c0 0.7 0.5 1.2 1.2 1.2h7.8v-3.306l-0.784 0.987-3.298-3.51-0.295-0.294c-0.198-0.199-0.198-0.455 0-0.653l0.813-0.711 0.161-0.162h0.103c0.2 0 0.31 0.078 0.341 0.243l1.945 2.122 1.014-1.274v-4.548l-0.784 0.987-3.298-3.51-0.295-0.295c-0.198-0.199-0.198-0.455 0-0.653l0.813-0.712 0.161-0.162h0.103c0.2 0 0.31 0.078 0.341 0.243l1.945 2.122 1.014-1.273v-0.441c0-1.218 0.894-2.137 2.094-2.19zm-1.704 2.956v3.8h29v-3.8c0-0.7-0.5-1.2-1.2-1.2h-26.6c-0.7 0-1.2 0.5-1.2 1.2zm37.8 8.8h-26.6c-0.7 0-1.2 0.5-1.2 1.2v3.8h29v-3.8c0-0.7-0.5-1.2-1.2-1.2zm-26.096-1.756c0.06-0.062 0.207-0.194 0.396-0.194h0.186l0.967 0.753 0.197 0.194v3e-3h15.55v-3h-29v18.8c0 0.7 0.5 1.2 1.2 1.2h7.8v-3.306l-0.784 0.987-3.298-3.51-0.295-0.294c-0.198-0.199-0.198-0.455 0-0.653l0.813-0.711 0.161-0.162h0.103c0.2 0 0.31 0.078 0.341 0.243l1.945 2.122 1.014-1.274v-4.548l-0.784 0.987-3.298-3.51-0.295-0.295c-0.198-0.199-0.198-0.455 0-0.653l0.813-0.712 0.161-0.162h0.103c0.2 0 0.31 0.078 0.341 0.243l1.945 2.122 1.014-1.273v-0.441c0-1.218 0.894-2.137 2.094-2.19zm-1.704 26.556c0 0.7 0.5 1.2 1.2 1.2h26.6c0.7 0 1.2-0.5 1.2-1.2v-18.8h-29zm14-12.8h11v2h-11zm0 8h11v2h-11zm-9.377-8.576 0.813-0.712 0.161-0.162h0.103c0.2 0 0.31 0.078 0.341 0.243l1.945 2.122 3.718-4.671c0.06-0.062 0.207-0.194 0.396-0.194h0.186l0.967 0.753 0.197 0.194v0.29l-5.234 6.595-3.298-3.51-0.295-0.295c-0.198-0.199-0.198-0.455 0-0.653zm0 7.801 0.813-0.711 0.161-0.162h0.103c0.2 0 0.31 0.078 0.341 0.243l1.945 2.122 3.718-4.671c0.06-0.062 0.207-0.194 0.396-0.194h0.186l0.967 0.752 0.197 0.194v0.289l-5.234 6.595-3.298-3.51-0.295-0.294c-0.198-0.199-0.198-0.455 0-0.653z" fill="#2165b6"/>
   </g>
  </g>
 </g>
</svg>
