<?xml version="1.0" encoding="UTF-8"?>
<!-- Created with Inkscape (http://www.inkscape.org/) -->
<svg width="100" height="100" version="1.1" viewBox="0 0 26.458 26.458" xmlns="http://www.w3.org/2000/svg" xmlns:cc="http://creativecommons.org/ns#" xmlns:dc="http://purl.org/dc/elements/1.1/" xmlns:rdf="http://www.w3.org/1999/02/22-rdf-syntax-ns#">
 <metadata>
  <rdf:RDF>
   <cc:Work rdf:about="">
    <dc:format>image/svg+xml</dc:format>
    <dc:type rdf:resource="http://purl.org/dc/dcmitype/StillImage"/>
    <dc:title/>
   </cc:Work>
  </rdf:RDF>
 </metadata>
 <g transform="translate(0 -270.54)">
  <g transform="matrix(.42718 0 0 .42718 -17.272 261.94)" fill="#2165b6">
   <g id="Office_subscription"></g>
   <g fill="#2165b6">
    <path d="m90.6 58.4 1.4-3.2 5.7-2v-4.6l-0.6-0.2-5-1.7-1.4-3.2 2.6-5.4-3.2-3.2-0.7 0.4-4.7 2.4-3.2-1.4-2.1-5.5h-4.7l-0.2 0.6-1.7 4.9-3.2 1.4-5.5-2.4-3.2 3.2 0.3 0.6 1.5 2.8c2.6-1.5 5.4-2.1 8.4-2.1 4.1 0.2 7.9 1.7 10.8 4.4 0.6 0.5 1.4 0.9 2 1.7 0.3 0.3 0.6 0.8 0.8 1.2 2 3.5 1.2 7.9-2.1 10.5-2.4 2-5.8 2.3-8.4 1.2-0.3-0.2-0.5-0.2-0.6-0.3-0.6-0.3-1.3-0.8-1.8-1.3-0.2 0-0.3-0.2-0.6-0.2-0.6 0-1.4 0.3-1.8 0.8l-0.2 0.2c-2 2-4.3 3.5-6.7 4.3l-1.6 1.7 3.3 3.3 0.6-0.3 4.7-2.4 3.2 1.3 1.8 5.5h4.7l0.2-0.6 1.7-4.9 3.2-1.4 5.5 2.4 3.2-3.2v-0.7z"/>
    <path d="m62.4 50.3c-3.6 3.8-9.3 3.8-12.8-0.2-0.3-0.5-1.2-0.5-1.5 0-0.2 0.2-0.3 0.5-0.3 0.8s0.2 0.6 0.3 0.8c4.3 4.7 11.3 4.9 15.7 0.3v-0.2c3.6-3.6 9.2-3.6 12.6 0.3 0.5 0.5 1.2 0.5 1.5 0 0.2-0.2 0.3-0.5 0.3-0.8s-0.2-0.6-0.3-0.8c-4.1-4.7-11.1-4.8-15.5-0.2z"/>
    <path d="m70.2 52.2c-2 0-3.6 0.6-5 2.1l-0.4 0.4c-2.4 2.6-5.8 4-9.2 3.8-3.5 0-6.6-1.7-9-4.3-0.5-0.5-1.2-0.5-1.5 0v0.8c0 0.3 0.2 0.6 0.3 0.8 2.8 3.1 6.5 4.9 10.5 4.9 4 0.2 7.6-1.5 10.7-4.6l0.4-0.4c0.9-0.9 2.1-1.5 3.5-1.5s2.4 0.6 3.5 1.7c0.5 0.5 1.2 0.5 1.5 0 0.2-0.2 0.3-0.5 0.3-0.8s-0.2-0.6-0.3-0.8c-1.5-1.3-3.3-2.1-5.3-2.1z"/>
    <path d="m80.9 46.6c-2.8-3.1-6.6-4.9-10.5-4.9s-7.6 1.5-10.7 4.6l-0.4 0.4c-0.9 0.9-2.1 1.5-3.5 1.5s-2.3-0.7-3.4-1.7c-0.5-0.5-1.2-0.5-1.5 0-0.2 0.2-0.3 0.5-0.3 0.8s0.2 0.6 0.3 0.8c1.4 1.5 3.1 2.3 4.9 2.3 2 0 3.6-0.6 5-2.1l0.2-0.2s0.2 0 0.2-0.2c2.4-2.6 5.8-4 9.2-4 3.5 0 6.6 1.7 8.8 4.3 0.5 0.5 1.2 0.5 1.5 0 0.2-0.2 0.3-0.5 0.3-0.8 0.2-0.3 0-0.6-0.1-0.8z"/>
   </g>
  </g>
 </g>
</svg>
