<?xml version="1.0" encoding="UTF-8"?>
<!-- Created with Inkscape (http://www.inkscape.org/) -->
<svg width="100" height="100" version="1.1" viewBox="0 0 26.458 26.458" xmlns="http://www.w3.org/2000/svg" xmlns:cc="http://creativecommons.org/ns#" xmlns:dc="http://purl.org/dc/elements/1.1/" xmlns:rdf="http://www.w3.org/1999/02/22-rdf-syntax-ns#" xmlns:v="http://schemas.microsoft.com/visio/2003/SVGExtensions/">
 <metadata>
  <rdf:RDF>
   <cc:Work rdf:about="">
    <dc:format>image/svg+xml</dc:format>
    <dc:type rdf:resource="http://purl.org/dc/dcmitype/StillImage"/>
    <dc:title/>
   </cc:Work>
  </rdf:RDF>
 </metadata>
 <g transform="translate(0 -270.54)">
  <g transform="matrix(.30193 0 0 .30193 2.1331 272.98)" fill="#2165b6" v:groupContext="foregroundPage" v:index="1" v:mID="0">
   <title>Page-1</title>
   <v:pageProperties v:drawingScale="1" v:drawingUnits="19" v:pageScale="1" v:shadowOffsetX="9" v:shadowOffsetY="-9"/>
   <g transform="translate(.75 -.75)" fill="#2165b6" v:groupContext="shape" v:mID="62">
    <title>SQL Data Warehouse (nc)</title>
    <path class="st1" d="m56.79 49.96c-0.74 0-1.34 0.27-1.8 0.83s-0.66 1.3-0.66 2.22c0 0.93 0.23 1.66 0.66 2.22 0.46 0.56 1.02 0.83 1.72 0.83 0.73 0 1.29-0.27 1.76-0.79 0.42-0.56 0.65-1.29 0.65-2.22 0-0.96-0.23-1.75-0.65-2.31-0.39-0.51-0.95-0.78-1.68-0.78zm11.97-14.11-0.06 0.17c-0.02 0.06-0.06 0.12-0.08 0.16v0.02c-0.04 0.05-0.08 0.09-0.11 0.15 0 0 0 0.02-0.02 0.02-0.04 0.06-0.08 0.1-0.14 0.15l-0.02 0.02c-0.04 0.06-0.1 0.1-0.15 0.16l-0.02 0.02c-0.06 0.04-0.12 0.09-0.18 0.13l-0.02 0.02c-0.05 0.04-0.11 0.1-0.19 0.14l-0.02 0.02c-0.08 0.04-0.13 0.09-0.21 0.13l-0.02 0.02c-0.08 0.04-0.15 0.1-0.23 0.14 0 0-0.02 0-0.02 0.02-0.1 0.03-0.17 0.09-0.27 0.13-0.58 0.29-1.29 0.54-2.11 0.77-0.01 0-0.03 0-0.03 0.02-0.1 0.04-0.22 0.06-0.33 0.08-0.04 0.02-0.08 0.02-0.12 0.04-0.09 0.02-0.19 0.06-0.29 0.08-0.06 0.02-0.09 0.02-0.15 0.03l-0.29 0.06c-0.06 0.02-0.12 0.02-0.19 0.04-0.1 0.02-0.2 0.04-0.28 0.06-0.07 0.02-0.13 0.02-0.21 0.04-0.09 0.02-0.17 0.04-0.27 0.06-0.08 0.01-0.15 0.01-0.23 0.03-0.1 0.02-0.17 0.04-0.27 0.04-0.08 0.02-0.15 0.02-0.25 0.04s-0.17 0.02-0.27 0.04c-0.08 0.02-0.18 0.02-0.27 0.04-0.1 0.02-0.18 0.02-0.27 0.04-0.1 0.02-0.19 0.02-0.27 0.04-0.1 0.01-0.18 0.01-0.27 0.03-0.1 0.02-0.2 0.02-0.29 0.04-0.1 0-0.18 0.02-0.27 0.02-0.1 0-0.21 0.02-0.31 0.02s-0.18 0.02-0.27 0.02c-0.1 0-0.21 0.02-0.33 0.02-0.1 0-0.17 0.02-0.27 0.02-0.12 0-0.23 0.02-0.33 0.02-0.08 0-0.17 0-0.25 0.02-0.12 0-0.23 0.02-0.37 0.02h-0.25c-0.13 0-0.27 0-0.4 0.02h-2.28c-0.12 0-0.25 0-0.37-0.02-0.09 0-0.17 0-0.25-0.02-0.11 0-0.23-0.02-0.33-0.02-0.09 0-0.17-0.02-0.27-0.02-0.09 0-0.21-0.02-0.31-0.02-0.09 0-0.17-0.02-0.27-0.02-0.09 0-0.19-0.02-0.31-0.02-0.09 0-0.17-0.02-0.27-0.02-0.09 0-0.19-0.02-0.29-0.04-0.09-0.02-0.19-0.02-0.27-0.04-0.09-0.01-0.17-0.01-0.27-0.03-0.09-0.02-0.19-0.02-0.27-0.04-0.07-0.02-0.17-0.02-0.25-0.04-0.09-0.02-0.19-0.02-0.27-0.04s-0.15-0.02-0.23-0.04c-0.1-0.02-0.19-0.04-0.29-0.04-0.08-0.02-0.15-0.02-0.21-0.04l-0.29-0.05c-0.08-0.02-0.14-0.02-0.19-0.04l-0.29-0.06c-0.06-0.02-0.12-0.02-0.18-0.04l-0.29-0.06c-0.06-0.02-0.09-0.02-0.15-0.03-0.1-0.02-0.21-0.06-0.31-0.08-0.04 0-0.08-0.02-0.12-0.02-0.11-0.02-0.23-0.06-0.32-0.1-0.02 0-0.04 0-0.04-0.02-1.08-0.31-1.99-0.67-2.67-1.08-0.08-0.06-0.15-0.1-0.23-0.15h-0.02c-0.08-0.06-0.13-0.1-0.21-0.16l-0.02-0.02c-0.06-0.05-0.12-0.09-0.17-0.15l-0.02-0.02c-0.06-0.06-0.12-0.1-0.16-0.16l-0.02-0.01c-0.06-0.06-0.09-0.1-0.13-0.16v-0.02c-0.04-0.06-0.08-0.11-0.12-0.15v-0.02c-0.04-0.06-0.06-0.12-0.1-0.18l-0.05-0.17c-0.04-0.12-0.06-0.21-0.06-0.33 0-2.03 5.54-3.74 12.39-3.74 6.86 0 12.4 1.68 12.4 3.74-0.1 0.16-0.12 0.25-0.15 0.37zm-0.18 21.88h-5.64v-9.49h2.13v7.73h3.51zm-9.34 1.35-1.26-1.3c-0.31 0.08-0.77 0.14-1.29 0.14-1.33 0-2.45-0.47-3.32-1.33-0.83-0.89-1.3-2.03-1.3-3.48 0-1.49 0.43-2.68 1.3-3.61 0.89-0.93 1.99-1.39 3.42-1.39 1.33 0 2.45 0.46 3.28 1.33s1.25 2.03 1.25 3.52c0 1.48-0.42 2.68-1.29 3.61l-0.19 0.19 2.41 2.32zm-8.36-2.74c-0.2 0.36-0.47 0.65-0.83 0.88-0.33 0.23-0.74 0.37-1.2 0.47-0.46 0.09-0.93 0.13-1.43 0.13s-1.02-0.04-1.49-0.13c-0.48 0-0.88-0.16-1.21-0.33v-2.13c0.36 0.33 0.79 0.56 1.25 0.74 0.47 0.13 0.93 0.23 1.33 0.23 0.28 0 0.51-0.04 0.7-0.1 0.19-0.04 0.37-0.09 0.5-0.19 0.14-0.1 0.23-0.19 0.27-0.33 0.04-0.13 0.1-0.23 0.1-0.36 0-0.2-0.04-0.37-0.14-0.51-0.09-0.13-0.23-0.27-0.42-0.42-0.19-0.14-0.43-0.23-0.66-0.37-0.23-0.09-0.5-0.23-0.83-0.37-0.73-0.32-1.29-0.69-1.66-1.1-0.37-0.46-0.56-0.96-0.56-1.62 0-0.5 0.1-0.92 0.27-1.25 0.2-0.37 0.47-0.66 0.79-0.89 0.33-0.23 0.74-0.43 1.2-0.5 0.46-0.1 0.93-0.14 1.43-0.14s0.93 0.04 1.29 0.1c0.37 0.04 0.74 0.13 1.07 0.27v1.99c-0.14-0.1-0.33-0.2-0.51-0.27-0.17-0.08-0.36-0.14-0.56-0.2-0.19-0.03-0.42-0.09-0.6-0.13-0.19-0.04-0.36-0.04-0.56-0.04-0.23 0-0.46 0-0.65 0.04s-0.37 0.1-0.5 0.19c-0.14 0.1-0.24 0.2-0.33 0.27-0.1 0.14-0.1 0.23-0.1 0.37 0 0.13 0.04 0.27 0.14 0.42 0.09 0.14 0.19 0.24 0.36 0.37 0.14 0.1 0.33 0.23 0.56 0.33 0.24 0.1 0.47 0.23 0.74 0.33 0.36 0.13 0.73 0.33 1.02 0.5 0.33 0.19 0.56 0.37 0.79 0.6s0.37 0.46 0.5 0.79c0.1 0.27 0.2 0.6 0.2 1.02 0 0.5-0.1 0.97-0.27 1.34zm5.54-26.13c-8.59 0-15.58 2.53-15.58 5.64v30c0 3.07 6.87 5.6 15.35 5.64v0.02h0.23c8.61 0 15.58-2.55 15.58-5.64v-30.02c0-3.15-6.99-5.64-15.58-5.64zm-25.02 18.83h6.89v-6.9h-6.89zm-9.72-9.35h6.9v-6.89h-6.9zm0 9.35h6.9v-6.9h-6.9zm-4.34-18.69h6.89v-6.9h-6.89zm-5.47 9.34h6.9v-6.89h-6.9zm0 9.35h6.9v-6.9h-6.9zm32.06-18.25c1.46-0.64 3.2-1.12 5.09-1.47v-9.19h5.08v-4.21l-26.95-14.42-27.15 14.42v4.21h5.54v29.14h4.64v-29.14h33.75z" fill="#2165b6"/>
   </g>
  </g>
 </g>
</svg>
