<?xml version="1.0" encoding="UTF-8"?>
<!-- Created with Inkscape (http://www.inkscape.org/) -->
<svg width="100" height="100" version="1.1" viewBox="0 0 26.458 26.458" xmlns="http://www.w3.org/2000/svg" xmlns:cc="http://creativecommons.org/ns#" xmlns:dc="http://purl.org/dc/elements/1.1/" xmlns:rdf="http://www.w3.org/1999/02/22-rdf-syntax-ns#">
 <metadata>
  <rdf:RDF>
   <cc:Work rdf:about="">
    <dc:format>image/svg+xml</dc:format>
    <dc:type rdf:resource="http://purl.org/dc/dcmitype/StillImage"/>
    <dc:title/>
   </cc:Work>
  </rdf:RDF>
 </metadata>
 <g transform="translate(0 -270.54)">
  <g transform="matrix(.3439 0 0 .3439 95.764 147.24)" fill="#2165b6">
   <path class="st0" d="m-208.4 395.1-3.1-3.1-13.8-13.4c-0.6-0.6-1.5-0.6-2.2 0-0.6 0.6-0.8 1.7 0 2.3l14.5 14.2c0.6 0.6 0.6 1.7 0 2.3l-14.8 14.7c-0.6 0.6-0.6 1.7 0 2.3s1.7 0.5 2.2 0l13.7-13.6 0.1-0.1 3.4-3.3c0.6-0.6 0.5-1.7 0-2.3z"/>
   <path class="st0" d="m-266.7 397.4c-0.6-0.6-0.6-1.7 0-2.3l14.2-14.2c0.8-0.6 0.6-1.7 0-2.3-0.7-0.6-1.6-0.6-2.2 0l-13.8 13.4-3.1 3.1c-0.5 0.6-0.6 1.7 0 2.3l3.1 3.5 0.1 0.1 14 13.4c0.5 0.5 1.6 0.6 2.2 0s0.6-1.7 0-2.3z"/>
   <polygon class="st0" points="-237.4 387.4 -224.4 367.5 -243.9 367.5 -254.4 397.1 -241.6 397.2 -251.6 426.5 -224 387.4"/>
  </g>
 </g>
</svg>
