<?xml version="1.0" encoding="UTF-8"?>
<!-- Created with Inkscape (http://www.inkscape.org/) -->
<svg width="100" height="100" version="1.1" viewBox="0 0 26.458 26.458" xmlns="http://www.w3.org/2000/svg" xmlns:cc="http://creativecommons.org/ns#" xmlns:dc="http://purl.org/dc/elements/1.1/" xmlns:rdf="http://www.w3.org/1999/02/22-rdf-syntax-ns#" xmlns:v="http://schemas.microsoft.com/visio/2003/SVGExtensions/">
 <metadata>
  <rdf:RDF>
   <cc:Work rdf:about="">
    <dc:format>image/svg+xml</dc:format>
    <dc:type rdf:resource="http://purl.org/dc/dcmitype/StillImage"/>
    <dc:title/>
   </cc:Work>
  </rdf:RDF>
 </metadata>
 <g transform="translate(0 -270.54)">
  <g transform="matrix(.66478 0 0 .66478 1.7683 275.16)" fill="#2165b6" v:groupContext="foregroundPage" v:index="1" v:mID="0">
   <title>Page-1</title>
   <v:pageProperties v:drawingScale="1" v:drawingUnits="19" v:pageScale="1" v:shadowOffsetX="2.83465" v:shadowOffsetY="-2.83465" v:shadowType="1"/>
   <g transform="translate(.75 -.75)" fill="#2165b6" v:groupContext="shape" v:mID="1093">
    <title>Container Service.2696</title>
    <path class="st1" d="m27.97 9.61v8.12l5.01-1.92v-4.42zm-2.05 6.99-0.33-0.13v-5.6l0.33-0.07 0.33-0.13 0.4-0.13v6.26l-0.4-0.13zm-1.19-0.39-0.26-0.07v-4.94l0.79-0.2v5.41l-0.26-0.07zm-0.98-0.33-0.2-0.07v-4.42l0.59-0.19v4.81zm-0.4-4.95v5.34l3.76 1.46v-8.12zm-1.52-9.43v8.18l5.08-1.98v-4.42zm0 16.23v8.17l5.08-1.97v-4.42zm-1.98-9.24-0.33-0.13v-5.61l0.33-0.06 0.33-0.13 0.4-0.14v6.27l-0.4-0.13zm-1.18-0.39-0.27-0.07v-4.95l0.79-0.19v5.4l-0.26-0.06zm-0.99-0.27-0.2-0.06v-4.42l0.59-0.2v4.81zm-0.4-4.94v5.34l3.76 1.45v-8.11zm2.57 21.83-0.33-0.13v-5.61l0.33-0.07 0.33-0.13 0.4-0.13v6.27l-0.4-0.14zm-1.18-0.4-0.27-0.06v-4.95l0.79-0.2v5.41l-0.26-0.07zm-0.99-0.26-0.2-0.07v-4.42l0.59-0.19v4.81zm-0.4-4.95v5.34l3.76 1.45v-8.11zm-0.92-9.5v8.12l5.01-1.92v-4.42zm-2.05 6.99-0.33-0.13v-5.6l0.33-0.07 0.33-0.13 0.4-0.13v6.26l-0.4-0.13zm-1.18-0.39-0.27-0.07v-4.94l0.79-0.2v5.41l-0.26-0.07zm-0.99-0.33-0.2-0.07v-4.42l0.59-0.19v4.81zm-0.4-4.95v5.34l3.76 1.46v-8.12zm-1.71-9.43v8.18l5.07-1.98v-4.42zm0 16.23v8.17l5.07-1.97v-4.42zm-1.98-9.24-0.33-0.13v-5.61l0.33-0.06 0.33-0.13 0.39-0.14v6.27l-0.39-0.13zm-1.19-0.39-0.26-0.07v-4.95l0.79-0.19v5.4l-0.27-0.06zm-0.99-0.27-0.2-0.06v-4.42l0.6-0.2v4.81zm-0.4-4.94v5.34l3.76 1.45v-8.11zm2.58 21.83-0.33-0.13v-5.61l0.33-0.07 0.33-0.13 0.39-0.13v6.27l-0.39-0.14zm-1.19-0.4-0.26-0.06v-4.95l0.79-0.2v5.41l-0.27-0.07zm-0.99-0.26-0.2-0.07v-4.42l0.6-0.19v4.81zm-0.4-4.95v5.34l3.76 1.45v-8.11zm-0.85-9.5v8.12l5.01-1.92v-4.42zm-2.05 6.99-0.33-0.13v-5.6l0.33-0.07 0.33-0.13 0.4-0.13v6.26l-0.4-0.13zm-1.18-0.39-0.27-0.07v-4.94l0.79-0.2v5.41l-0.26-0.07zm-0.99-0.33-0.2-0.07v-4.42l0.59-0.19v4.81zm-0.4-4.95v5.34l3.76 1.46v-8.12z" fill="#2165b6"/>
   </g>
  </g>
 </g>
</svg>
