<?xml version="1.0" encoding="UTF-8"?>
<!-- Created with Inkscape (http://www.inkscape.org/) -->
<svg width="100" height="100" version="1.1" viewBox="0 0 26.458 26.458" xmlns="http://www.w3.org/2000/svg" xmlns:cc="http://creativecommons.org/ns#" xmlns:dc="http://purl.org/dc/elements/1.1/" xmlns:rdf="http://www.w3.org/1999/02/22-rdf-syntax-ns#" xmlns:v="http://schemas.microsoft.com/visio/2003/SVGExtensions/">
 <metadata>
  <rdf:RDF>
   <cc:Work rdf:about="">
    <dc:format>image/svg+xml</dc:format>
    <dc:type rdf:resource="http://purl.org/dc/dcmitype/StillImage"/>
    <dc:title/>
   </cc:Work>
  </rdf:RDF>
 </metadata>
 <g transform="translate(0 -270.54)">
  <g transform="matrix(.82015 0 0 .82015 2.7649 273.11)" fill="#2165b6" v:groupContext="foregroundPage" v:index="1" v:mID="0">
   <title>Page-1</title>
   <v:pageProperties v:drawingScale="1" v:drawingUnits="19" v:pageScale="1" v:shadowOffsetX="2.83465" v:shadowOffsetY="-2.83465" v:shadowType="1"/>
   <g transform="translate(.75 -.75)" fill="#2165b6" v:groupContext="shape" v:mID="1608">
    <title>Sheet.1608</title>
    <path class="st1" d="m15.08 21.08a0.75503 0.75503-180 1 0-1.51 0 0.75503 0.75503-180 1 0 1.51 0zm-2.67-1.19c0.85 0 1.54-0.69 1.54-1.54 0-0.24-0.06-0.47-0.16-0.67h3.59l3.14 5.45h-17.03l3.15-5.45h4.39c-0.1 0.2-0.16 0.43-0.16 0.67 0 0.85 0.69 1.54 1.54 1.54zm11.25 3.47-7.63-13.21v-5.35h0.14c0.91 0 1.65-0.74 1.65-1.65s-0.74-1.65-1.65-1.65h-8.32c-0.92 0-1.65 0.74-1.65 1.65s0.73 1.65 1.65 1.65h0.13v5.35l-7.62 13.21c-0.84 1.45-0.16 2.64 1.52 2.64h20.26c1.67 0 2.36-1.19 1.52-2.64z" fill="#2165b6"/>
   </g>
  </g>
 </g>
</svg>
