<?xml version="1.0" encoding="UTF-8"?>
<!-- Created with Inkscape (http://www.inkscape.org/) -->
<svg width="100" height="100" version="1.1" viewBox="0 0 26.458 26.458" xmlns="http://www.w3.org/2000/svg" xmlns:cc="http://creativecommons.org/ns#" xmlns:dc="http://purl.org/dc/elements/1.1/" xmlns:rdf="http://www.w3.org/1999/02/22-rdf-syntax-ns#" xmlns:v="http://schemas.microsoft.com/visio/2003/SVGExtensions/">
 <metadata>
  <rdf:RDF>
   <cc:Work rdf:about="">
    <dc:format>image/svg+xml</dc:format>
    <dc:type rdf:resource="http://purl.org/dc/dcmitype/StillImage"/>
    <dc:title/>
   </cc:Work>
  </rdf:RDF>
 </metadata>
 <g transform="translate(0 -270.54)">
  <g transform="matrix(.32493 0 0 .32493 2.4866 273.03)" fill="#2165b6" v:groupContext="foregroundPage" v:index="1" v:mID="0">
   <title>Page-1</title>
   <v:pageProperties v:drawingScale="1" v:drawingUnits="19" v:pageScale="1" v:shadowOffsetX="2.83465" v:shadowOffsetY="-2.83465" v:shadowType="1"/>
   <g transform="translate(.75 -.75)" fill="#2165b6" v:groupContext="shape" v:mID="1437">
    <title>Data Lake Analytics (nc)</title>
    <path class="st1" d="m26.55 2.06c-1.42-0.64-3.1-0.77-4.59-0.19-1.49 0.52-2.72 1.62-3.36 3.1l-0.84 1.75h-6.66c-3.23 0-5.88 2.65-5.88 5.88v21.41l-4.65 9.94c-0.65 1.42-0.78 3.1-0.2 4.58 0.52 1.49 1.62 2.72 3.1 3.36l1.75 0.85v2.19c0 3.23 2.65 5.88 5.88 5.88h21.27l10.08 4.72c0.77 0.39 1.68 0.58 2.52 0.58 0.71 0 1.36-0.13 2.07-0.38 1.48-0.52 2.71-1.62 3.36-3.11l0.87-1.81h2.16c3.24 0 5.89-2.65 5.89-5.88v-16.75l4.71-10.07c0.72-1.49 0.78-3.1 0.2-4.65-0.52-1.49-1.62-2.72-3.1-3.36l-1.81-0.88v-6.62c0-3.23-2.65-5.88-5.89-5.88h-16.95zm15.06 27.67h-8.21l3.42-11.44c0.07-0.33-0.06-0.65-0.32-0.78-0.06-0.06-0.19-0.06-0.26-0.06-0.19 0-0.39 0.12-0.51 0.25l-13.25 19.33c-0.13 0.19-0.13 0.45-0.07 0.65 0.13 0.19 0.32 0.32 0.58 0.32h7.95l-3.55 11.63c-0.07 0.33 0.06 0.65 0.32 0.78 0.07 0.06 0.2 0.06 0.26 0.06 0.19 0 0.39-0.13 0.52-0.26l13.63-19.51c0.07-0.13 0.13-0.26 0.13-0.39 0-0.33-0.32-0.58-0.64-0.58zm-30.51-19.14h42.33c1.04 0 1.94 0.84 1.94 1.94v42.34c0 1.03-0.84 1.94-1.94 1.94h-42.33c-1.03 0-1.94-0.84-1.94-1.94v-42.34c0-1.03 0.84-1.94 1.94-1.94z" fill="#2165b6"/>
   </g>
  </g>
 </g>
</svg>
