<?xml version="1.0" encoding="UTF-8"?>
<!-- Created with Inkscape (http://www.inkscape.org/) -->
<svg width="100" height="100" version="1.1" viewBox="0 0 26.458 26.458" xmlns="http://www.w3.org/2000/svg" xmlns:cc="http://creativecommons.org/ns#" xmlns:dc="http://purl.org/dc/elements/1.1/" xmlns:rdf="http://www.w3.org/1999/02/22-rdf-syntax-ns#">
 <metadata>
  <rdf:RDF>
   <cc:Work rdf:about="">
    <dc:format>image/svg+xml</dc:format>
    <dc:type rdf:resource="http://purl.org/dc/dcmitype/StillImage"/>
    <dc:title/>
   </cc:Work>
  </rdf:RDF>
 </metadata>
 <g transform="translate(0 -270.54)">
  <g transform="matrix(3.1466 0 0 3.1466 -920 490.87)" fill="#2165b6" stroke-width=".26458">
   <path d="m296.59-67.935c-1.0331 0-1.8919 0.74083-2.0779 1.7198h0.54054c0.31851 0 0.57772 0.25891 0.57772 0.57774 0 0.04843-5e-3 0.09177-0.0161 0.13487h0.0868c0.31856 0 0.57775 0.25943 0.57775 0.57826 0 0.31856-0.25892 0.57774-0.57775 0.57774h-0.62682c0.14597 0.15021 0.31165 0.2811 0.49659 0.38292 0.45773-0.32253 0.9828-0.75694 1.5498-1.324 0.25768-0.25769 0.4807-0.50095 0.68159-0.73329h-1.0371c-0.33496 0-0.60512-0.27043-0.60512-0.60513 0-0.3347 0.27006-0.60513 0.61028-0.60513h0.24858c-0.0111-0.03256-0.0161-0.07002-0.0161-0.10232 0-0.21616 0.17246-0.38912 0.38862-0.38912h0.11419c-0.27765-0.13382-0.58679-0.21239-0.91569-0.21239zm1.2325 1.8914z"/>
   <path d="m297.68-64.726c-0.37836 0.37809-0.76412 0.72099-1.1425 1.0221 0.0169 5.3e-4 0.0336 3e-3 0.0505 3e-3 1.1689 0 2.1167-0.94774 2.1167-2.1167 0-0.0172-2e-3 -0.0336-3e-3 -0.0505-0.30957 0.38815-0.65538 0.77576-1.0221 1.1425z"/>
   <path d="m299.61-68.839c-0.0905-0.0905-0.22199-0.13335-0.38656-0.13335-0.45058 0-1.1504 0.32412-1.9346 0.88054 0.10292 0.032 0.2032 0.0693 0.29977 0.11456 0.70961-0.48181 1.2975-0.73051 1.6351-0.73051 0.0654 0 0.15319 0.01 0.19949 0.0558 0.25056 0.25056-0.25558 1.691-2.1159 3.5512-1.4258 1.4258-2.7654 2.1717-3.3517 2.1717-0.0656 0-0.1532-0.01-0.1995-0.0558-0.16563-0.16563 3e-3 -0.85407 0.67257-1.8386-0.0442-0.0952-0.081-0.1942-0.11244-0.2958-0.75989 1.0708-1.0848 1.9836-0.74719 2.3214 0.0905 0.0905 0.22199 0.13335 0.38656 0.13335 0.74586 0 2.1722-0.88291 3.5388-2.2492 1.6679-1.6682 2.6151-3.4256 2.1156-3.9254z"/>
   <path d="m294.47-68.993c0 0.58446-0.47386 1.0583-1.0583 1.0583 0.58447 0 1.0583 0.47387 1.0583 1.0583 0-0.58447 0.47387-1.0583 1.0583-1.0583-0.58447 0-1.0583-0.47387-1.0583-1.0583z"/>
   <path d="m298.97-64.231c0 0.43841-0.35533 0.79375-0.79375 0.79375 0.43842 0 0.79375 0.35534 0.79375 0.79375 0-0.43841 0.35534-0.79375 0.79375-0.79375-0.43841 0-0.79375-0.35534-0.79375-0.79375z"/>
  </g>
 </g>
</svg>
