<?xml version="1.0" encoding="UTF-8" standalone="no"?>
<svg
   xmlns:dc="http://purl.org/dc/elements/1.1/"
   xmlns:cc="http://creativecommons.org/ns#"
   xmlns:rdf="http://www.w3.org/1999/02/22-rdf-syntax-ns#"
   xmlns:svg="http://www.w3.org/2000/svg"
   xmlns="http://www.w3.org/2000/svg"
   xmlns:sodipodi="http://sodipodi.sourceforge.net/DTD/sodipodi-0.dtd"
   xmlns:inkscape="http://www.inkscape.org/namespaces/inkscape"
   preserveAspectRatio="xMidYMid"
   width="1109"
   height="1701.03"
   viewBox="0 0 1109 1701.03"
   version="1.1"
   id="svg8"
   sodipodi:docname="PadLocke.svg"
   inkscape:version="0.92.0 r15299">
  <metadata
     id="metadata12">
    <rdf:RDF>
      <cc:Work
         rdf:about="">
        <dc:format>image/svg+xml</dc:format>
        <dc:type
           rdf:resource="http://purl.org/dc/dcmitype/StillImage" />
      </cc:Work>
    </rdf:RDF>
  </metadata>
  <sodipodi:namedview
     pagecolor="#ffffff"
     bordercolor="#666666"
     borderopacity="1"
     objecttolerance="10"
     gridtolerance="10"
     guidetolerance="10"
     inkscape:pageopacity="0"
     inkscape:pageshadow="2"
     inkscape:window-width="1920"
     inkscape:window-height="1137"
     id="namedview10"
     showgrid="false"
     inkscape:zoom="0.13873947"
     inkscape:cx="-616.76008"
     inkscape:cy="850.51501"
     inkscape:window-x="-8"
     inkscape:window-y="32"
     inkscape:window-maximized="1"
     inkscape:current-layer="svg8" />
  <defs
     id="defs4">
    <style
       id="style2">
      .cls-1 {
        fill: #31aae1;
        fill-rule: evenodd;
      }
    </style>
  </defs>
  <path
     d="M928.991,593.663 C1006.573,592.910 1051.513,603.084 1082.758,647.068 C1119.957,699.433 1106.700,819.083 1106.698,906.724 C1106.391,1133.824 1106.084,1360.991 1105.777,1588.091 C1081.528,1715.157 976.671,1698.587 830.469,1698.583 C664.442,1698.583 498.365,1698.583 332.337,1698.583 C257.817,1698.586 114.104,1710.092 68.079,1682.930 C-10.653,1636.466 1.780,1555.102 1.784,1433.402 C1.784,1252.950 1.784,1072.444 1.784,891.992 C1.780,796.166 -11.054,693.385 32.169,638.781 C75.572,583.950 155.665,593.660 252.231,593.663 C423.169,593.663 594.158,593.663 765.095,593.663 C765.969,426.192 783.573,291.046 687.751,215.229 C665.608,197.708 640.755,183.128 611.328,172.873 C464.401,121.672 348.159,235.655 324.050,345.977 C314.475,389.798 321.150,450.055 321.288,498.824 C266.662,498.824 212.019,498.824 157.393,498.824 C156.756,438.672 151.719,368.364 162.917,316.513 C194.409,170.700 278.586,74.470 405.998,24.630 C471.312,-0.919 575.005,-9.837 650.921,13.581 C695.599,27.362 735.348,47.222 769.699,71.589 C846.885,126.342 900.144,207.733 923.466,316.513 C930.565,349.621 928.990,389.372 928.991,428.846 C928.991,483.780 928.991,538.730 928.991,593.663 ZM534.905,787.945 C525.084,790.400 515.261,792.856 505.441,795.311 C484.382,808.099 465.748,820.435 452.036,840.429 C447.648,846.828 430.158,888.849 427.176,888.309 C415.737,887.582 403.065,883.499 388.504,882.784 C344.813,880.639 315.731,928.179 304.714,963.811 C301.354,974.680 303.506,1021.009 300.111,1023.661 C281.997,1034.586 260.558,1041.940 247.627,1060.492 C206.041,1120.156 210.313,1209.695 263.280,1259.377 C275.469,1270.810 294.748,1278.065 311.160,1282.397 C323.128,1282.090 335.101,1281.783 347.069,1281.476 C356.812,1307.298 382.320,1314.682 401.394,1331.197 C407.839,1338.563 414.286,1345.930 420.730,1353.296 C441.599,1372.630 462.474,1391.970 483.342,1411.304 C503.823,1428.830 533.937,1439.402 545.033,1466.550 C554.621,1490.007 538.538,1553.785 530.301,1571.517 C561.911,1571.517 593.530,1571.517 625.140,1571.517 C625.140,1571.210 625.140,1570.903 625.140,1570.596 C615.483,1546.195 606.930,1511.085 609.487,1486.807 C612.411,1459.038 600.899,1419.974 617.773,1395.651 C640.666,1362.653 704.172,1332.526 738.393,1310.940 C748.521,1302.654 758.651,1294.366 768.778,1286.080 C770.610,1285.129 795.400,1281.927 796.401,1282.397 C819.579,1271.971 842.209,1259.209 857.172,1237.279 C885.584,1195.637 899.219,1129.055 881.111,1076.145 C874.935,1058.097 857.678,1038.141 853.488,1024.582 C851.067,1016.746 859.142,987.754 857.172,974.861 C852.459,944.031 841.857,918.809 824.945,896.595 C812.283,879.964 790.513,869.029 770.620,863.448 C758.958,863.448 747.293,863.448 735.631,863.448 C730.721,859.151 725.809,854.854 720.899,850.557 C711.692,846.261 702.483,841.963 693.276,837.666 C671.327,830.448 646.851,844.027 634.347,834.904 C615.907,798.870 574.883,790.624 534.905,787.945 ZM613.170,1305.416 C626.593,1309.407 637.531,1319.516 650.921,1322.910 C644.662,1341.716 631.075,1373.749 609.487,1376.315 C602.457,1359.273 607.810,1331.798 608.566,1310.020 C610.837,1308.631 611.663,1307.477 613.170,1305.416 ZM661.970,1325.673 C670.256,1325.979 678.545,1326.286 686.831,1326.593 C677.692,1337.454 664.770,1348.213 651.842,1355.137 C650.614,1354.523 649.386,1353.909 648.159,1353.296 C652.762,1344.089 657.367,1334.879 661.970,1325.673 ZM422.572,1332.118 C429.324,1332.425 436.077,1332.732 442.829,1333.039 C444.599,1334.321 443.380,1333.132 444.670,1334.880 C448.353,1347.156 452.037,1359.435 455.719,1371.711 C443.127,1363.016 428.820,1347.016 420.730,1333.959 C421.344,1333.346 421.958,1332.732 422.572,1332.118 ZM454.799,1335.801 C468.502,1341.847 480.341,1349.786 497.154,1353.296 C506.543,1381.544 534.425,1402.773 539.509,1432.481 C538.281,1432.788 537.053,1433.095 535.826,1433.402 C527.540,1428.185 519.251,1422.966 510.965,1417.749 C484.518,1398.358 459.491,1374.279 454.799,1335.801 ZM546.875,1350.533 C547.795,1350.840 548.716,1351.147 549.637,1351.454 C547.641,1364.375 553.456,1394.462 545.954,1399.334 C544.726,1399.641 543.499,1399.948 542.271,1400.255 C533.886,1387.449 522.921,1376.754 521.094,1356.979 C521.400,1356.365 521.707,1355.751 522.014,1355.137 C531.140,1355.098 541.818,1353.784 546.875,1350.533 Z"
     class="cls-1"
     id="path6"
     style="fill:#2165b6;fill-opacity:1"
     inkscape:export-xdpi="90"
     inkscape:export-ydpi="90" />
</svg>
